<mxfile host="app.diagrams.net" modified="2023-08-12T18:41:34.478Z" agent="Mozilla/5.0 (Windows NT 10.0; Win64; x64) AppleWebKit/537.36 (KHTML, like Gecko) Chrome/114.0.0.0 Safari/537.36 OPR/100.0.0.0" etag="dHeuKoF3RT3n51kDkqyK" version="21.6.8" type="github">
  <diagram name="Página-1" id="qsprEDrnKjSDkDAt6ycz">
    <mxGraphModel dx="987" dy="571" grid="1" gridSize="10" guides="1" tooltips="1" connect="1" arrows="1" fold="1" page="1" pageScale="1" pageWidth="827" pageHeight="1169" math="0" shadow="0">
      <root>
        <mxCell id="0" />
        <mxCell id="1" parent="0" />
        <mxCell id="GsYoWIYc0X2GXS2TcRz5-17" value="" style="edgeStyle=orthogonalEdgeStyle;rounded=0;orthogonalLoop=1;jettySize=auto;html=1;" edge="1" parent="1" source="zYkmVKhotaVS6C0Z0ZAc-1" target="GsYoWIYc0X2GXS2TcRz5-6">
          <mxGeometry relative="1" as="geometry" />
        </mxCell>
        <mxCell id="zYkmVKhotaVS6C0Z0ZAc-1" value="Inicio" style="ellipse;whiteSpace=wrap;html=1;" parent="1" vertex="1">
          <mxGeometry x="369" y="30" width="90" height="60" as="geometry" />
        </mxCell>
        <mxCell id="zYkmVKhotaVS6C0Z0ZAc-8" value="" style="edgeStyle=orthogonalEdgeStyle;rounded=0;orthogonalLoop=1;jettySize=auto;html=1;entryX=0.5;entryY=0;entryDx=0;entryDy=0;" parent="1" source="zYkmVKhotaVS6C0Z0ZAc-2" target="GsYoWIYc0X2GXS2TcRz5-5" edge="1">
          <mxGeometry relative="1" as="geometry">
            <mxPoint x="403" y="470" as="targetPoint" />
          </mxGeometry>
        </mxCell>
        <mxCell id="zYkmVKhotaVS6C0Z0ZAc-2" value="num1, num2" style="shape=parallelogram;perimeter=parallelogramPerimeter;whiteSpace=wrap;html=1;fixedSize=1;" parent="1" vertex="1">
          <mxGeometry x="361" y="360" width="105" height="50" as="geometry" />
        </mxCell>
        <mxCell id="GsYoWIYc0X2GXS2TcRz5-3" value="" style="edgeStyle=orthogonalEdgeStyle;rounded=0;orthogonalLoop=1;jettySize=auto;html=1;" edge="1" parent="1" source="GsYoWIYc0X2GXS2TcRz5-1" target="zYkmVKhotaVS6C0Z0ZAc-2">
          <mxGeometry relative="1" as="geometry" />
        </mxCell>
        <mxCell id="GsYoWIYc0X2GXS2TcRz5-1" value="Informe dois valores" style="shape=document;whiteSpace=wrap;html=1;boundedLbl=1;" vertex="1" parent="1">
          <mxGeometry x="361.5" y="250" width="105" height="60" as="geometry" />
        </mxCell>
        <mxCell id="GsYoWIYc0X2GXS2TcRz5-9" style="edgeStyle=orthogonalEdgeStyle;rounded=0;orthogonalLoop=1;jettySize=auto;html=1;entryX=1;entryY=0.5;entryDx=0;entryDy=0;" edge="1" parent="1" source="GsYoWIYc0X2GXS2TcRz5-4" target="GsYoWIYc0X2GXS2TcRz5-5">
          <mxGeometry relative="1" as="geometry">
            <Array as="points">
              <mxPoint x="500" y="604" />
              <mxPoint x="500" y="500" />
            </Array>
          </mxGeometry>
        </mxCell>
        <mxCell id="GsYoWIYc0X2GXS2TcRz5-10" value="Sim" style="edgeLabel;html=1;align=center;verticalAlign=middle;resizable=0;points=[];" vertex="1" connectable="0" parent="GsYoWIYc0X2GXS2TcRz5-9">
          <mxGeometry x="0.0224" y="-1" relative="1" as="geometry">
            <mxPoint as="offset" />
          </mxGeometry>
        </mxCell>
        <mxCell id="GsYoWIYc0X2GXS2TcRz5-12" value="" style="edgeStyle=orthogonalEdgeStyle;rounded=0;orthogonalLoop=1;jettySize=auto;html=1;" edge="1" parent="1" source="GsYoWIYc0X2GXS2TcRz5-4" target="GsYoWIYc0X2GXS2TcRz5-11">
          <mxGeometry relative="1" as="geometry" />
        </mxCell>
        <mxCell id="GsYoWIYc0X2GXS2TcRz5-16" value="Não" style="edgeLabel;html=1;align=center;verticalAlign=middle;resizable=0;points=[];" vertex="1" connectable="0" parent="GsYoWIYc0X2GXS2TcRz5-12">
          <mxGeometry x="-0.5145" y="-2" relative="1" as="geometry">
            <mxPoint x="1" as="offset" />
          </mxGeometry>
        </mxCell>
        <mxCell id="GsYoWIYc0X2GXS2TcRz5-4" value="num2&amp;gt;0" style="rhombus;whiteSpace=wrap;html=1;" vertex="1" parent="1">
          <mxGeometry x="374" y="570" width="80" height="80" as="geometry" />
        </mxCell>
        <mxCell id="GsYoWIYc0X2GXS2TcRz5-8" value="" style="edgeStyle=orthogonalEdgeStyle;rounded=0;orthogonalLoop=1;jettySize=auto;html=1;" edge="1" parent="1" source="GsYoWIYc0X2GXS2TcRz5-5" target="GsYoWIYc0X2GXS2TcRz5-4">
          <mxGeometry relative="1" as="geometry" />
        </mxCell>
        <mxCell id="GsYoWIYc0X2GXS2TcRz5-5" value="r = r + num1&lt;br&gt;num2 = num2 -1" style="rounded=0;whiteSpace=wrap;html=1;" vertex="1" parent="1">
          <mxGeometry x="354" y="470" width="120" height="60" as="geometry" />
        </mxCell>
        <mxCell id="GsYoWIYc0X2GXS2TcRz5-18" value="" style="edgeStyle=orthogonalEdgeStyle;rounded=0;orthogonalLoop=1;jettySize=auto;html=1;" edge="1" parent="1" source="GsYoWIYc0X2GXS2TcRz5-6" target="GsYoWIYc0X2GXS2TcRz5-1">
          <mxGeometry relative="1" as="geometry" />
        </mxCell>
        <mxCell id="GsYoWIYc0X2GXS2TcRz5-6" value="r = 0" style="rounded=0;whiteSpace=wrap;html=1;" vertex="1" parent="1">
          <mxGeometry x="354" y="150" width="120" height="60" as="geometry" />
        </mxCell>
        <mxCell id="GsYoWIYc0X2GXS2TcRz5-15" value="" style="edgeStyle=orthogonalEdgeStyle;rounded=0;orthogonalLoop=1;jettySize=auto;html=1;" edge="1" parent="1" source="GsYoWIYc0X2GXS2TcRz5-11" target="GsYoWIYc0X2GXS2TcRz5-14">
          <mxGeometry relative="1" as="geometry" />
        </mxCell>
        <mxCell id="GsYoWIYc0X2GXS2TcRz5-11" value="O resultado é r" style="shape=document;whiteSpace=wrap;html=1;boundedLbl=1;" vertex="1" parent="1">
          <mxGeometry x="361.5" y="710" width="105" height="60" as="geometry" />
        </mxCell>
        <mxCell id="GsYoWIYc0X2GXS2TcRz5-14" value="Fim" style="ellipse;whiteSpace=wrap;html=1;" vertex="1" parent="1">
          <mxGeometry x="369" y="830" width="90" height="60" as="geometry" />
        </mxCell>
      </root>
    </mxGraphModel>
  </diagram>
</mxfile>
